# xmcd
#
# Track frame offsets:
#	150
#	24350
#	57006
#	75273
#	95861
#	120262
#	150419
#	170967
#	189647
#	210993
#	235794
#	277263
#
# Disc length: 4139 seconds
#
# Revision: 0
# Processed by: cddbd v1.5.2PL0 Copyright (c) Steve Scherf et al.
# Submitted via: dBpowerAMP V4.0
#
DISCID=9510290c
DTITLE=Blues Jamboree - Ride Train Ride
DYEAR=2014
DGENRE=Blues
TTITLE0=Get Right church
TTITLE1=Jack of diamonds
TTITLE2=Cornbread, peas and black molasses
TTITLE3=Ride train ride
TTITLE4=I need your love so bad
TTITLE5=You ain't too old
TTITLE6=Weary blues from waitin'
TTITLE7=Louise mc ghee
TTITLE8=Jesus is on the mainline
TTITLE9=Folsom prison blues
TTITLE10=You're gonna need somebody on your bond
TTITLE11=Good road camp blues
EXTD=
EXTT0=
EXTT1=
EXTT2=
EXTT3=
EXTT4=
EXTT5=
EXTT6=
EXTT7=
EXTT8=
EXTT9=
EXTT10=
EXTT11=
PLAYORDER=
